<svg width="69" height="85" viewBox="0 0 69 85" fill="none" xmlns="http://www.w3.org/2000/svg">
<path d="M24.5331 3.81003C31.7543 0.505748 39.7647 -0.684616 47.6347 0.377411C55.5043 1.43948 62.912 4.71009 68.9989 9.81003L57.3407 23.7231C53.1788 20.1808 47.7851 18.0424 41.8915 18.0424C28.7197 18.0426 18.0419 28.7202 18.0419 41.8921C18.0419 55.0639 28.7197 65.7415 41.8915 65.7417C47.4711 65.7417 52.6024 63.8247 56.6649 60.6147L68.0136 75.0219C61.7753 79.9357 54.2721 82.9804 46.3739 83.8042C38.4755 84.6279 30.5047 83.1972 23.3866 79.6762C16.2685 76.1553 10.2946 70.6884 6.15616 63.9106C2.01786 57.133 -0.115111 49.3216 0.00479126 41.3813C0.124773 33.441 2.49266 25.6969 6.83389 19.0473C11.1752 12.3977 17.3119 7.11431 24.5331 3.81003Z" fill="#FF8659"/>
<path d="M41.7203 22.2738C52.4942 22.2738 61.228 31.0077 61.2281 41.7816C61.2281 52.5556 52.4943 61.2904 41.7203 61.2904C30.9464 61.2903 22.2125 52.5556 22.2125 41.7816C22.2127 31.0078 30.9465 22.2739 41.7203 22.2738ZM41.6178 33.3031C36.9437 33.3032 33.1549 37.0919 33.1549 41.766C33.1549 46.4401 36.9437 50.2297 41.6178 50.2299C46.292 50.2299 50.0816 46.4402 50.0816 41.766C50.0816 37.0918 46.2919 33.3031 41.6178 33.3031Z" fill="#FF8659"/>
</svg>
